<mxfile host="app.diagrams.net" modified="2023-03-17T12:14:52.763Z" agent="5.0 (Windows NT 10.0; WOW64) AppleWebKit/537.36 (KHTML, like Gecko) Chrome/80.0.3987.87 Safari/537.36 SE 2.X MetaSr 1.0" etag="NRPYzsa4J4VMxVFMwVHQ" version="21.0.6" type="github">
  <diagram name="第 1 页" id="8e2k5n_Dr2OKkf0tZEOp">
    <mxGraphModel dx="1221" dy="649" grid="0" gridSize="10" guides="1" tooltips="1" connect="1" arrows="1" fold="1" page="1" pageScale="1" pageWidth="827" pageHeight="1169" math="0" shadow="0">
      <root>
        <mxCell id="0" />
        <mxCell id="1" parent="0" />
        <mxCell id="uXLMxbTY_3VQ1I9C7Unm-1" value="" style="ellipse;whiteSpace=wrap;html=1;aspect=fixed;strokeWidth=5;" vertex="1" parent="1">
          <mxGeometry x="460" y="182" width="80" height="80" as="geometry" />
        </mxCell>
        <mxCell id="uXLMxbTY_3VQ1I9C7Unm-2" value="" style="ellipse;whiteSpace=wrap;html=1;aspect=fixed;strokeWidth=5;" vertex="1" parent="1">
          <mxGeometry x="460" y="290" width="80" height="80" as="geometry" />
        </mxCell>
        <mxCell id="uXLMxbTY_3VQ1I9C7Unm-3" value="" style="ellipse;whiteSpace=wrap;html=1;aspect=fixed;strokeWidth=5;" vertex="1" parent="1">
          <mxGeometry x="460" y="430" width="80" height="80" as="geometry" />
        </mxCell>
        <mxCell id="uXLMxbTY_3VQ1I9C7Unm-4" value="" style="ellipse;whiteSpace=wrap;html=1;aspect=fixed;strokeWidth=5;" vertex="1" parent="1">
          <mxGeometry x="460" y="534" width="80" height="80" as="geometry" />
        </mxCell>
        <mxCell id="uXLMxbTY_3VQ1I9C7Unm-16" style="rounded=0;orthogonalLoop=1;jettySize=auto;html=1;exitX=1;exitY=0.5;exitDx=0;exitDy=0;strokeWidth=5;" edge="1" parent="1" source="uXLMxbTY_3VQ1I9C7Unm-5">
          <mxGeometry relative="1" as="geometry">
            <mxPoint x="460" y="600" as="targetPoint" />
          </mxGeometry>
        </mxCell>
        <mxCell id="uXLMxbTY_3VQ1I9C7Unm-17" style="rounded=0;orthogonalLoop=1;jettySize=auto;html=1;entryX=0;entryY=0.5;entryDx=0;entryDy=0;exitX=1;exitY=0.5;exitDx=0;exitDy=0;strokeWidth=5;" edge="1" parent="1" source="uXLMxbTY_3VQ1I9C7Unm-5" target="uXLMxbTY_3VQ1I9C7Unm-3">
          <mxGeometry relative="1" as="geometry" />
        </mxCell>
        <mxCell id="uXLMxbTY_3VQ1I9C7Unm-18" style="rounded=0;orthogonalLoop=1;jettySize=auto;html=1;entryX=0;entryY=0.5;entryDx=0;entryDy=0;strokeWidth=5;" edge="1" parent="1" source="uXLMxbTY_3VQ1I9C7Unm-5" target="uXLMxbTY_3VQ1I9C7Unm-2">
          <mxGeometry relative="1" as="geometry" />
        </mxCell>
        <mxCell id="uXLMxbTY_3VQ1I9C7Unm-5" value="" style="ellipse;whiteSpace=wrap;html=1;aspect=fixed;strokeWidth=5;" vertex="1" parent="1">
          <mxGeometry x="315" y="217" width="80" height="80" as="geometry" />
        </mxCell>
        <mxCell id="uXLMxbTY_3VQ1I9C7Unm-12" style="rounded=0;orthogonalLoop=1;jettySize=auto;html=1;exitX=1;exitY=0.5;exitDx=0;exitDy=0;entryX=0;entryY=0.5;entryDx=0;entryDy=0;strokeWidth=5;" edge="1" parent="1" source="uXLMxbTY_3VQ1I9C7Unm-6" target="uXLMxbTY_3VQ1I9C7Unm-2">
          <mxGeometry relative="1" as="geometry" />
        </mxCell>
        <mxCell id="uXLMxbTY_3VQ1I9C7Unm-19" style="rounded=0;orthogonalLoop=1;jettySize=auto;html=1;entryX=0;entryY=0.5;entryDx=0;entryDy=0;strokeWidth=5;" edge="1" parent="1" target="uXLMxbTY_3VQ1I9C7Unm-1">
          <mxGeometry relative="1" as="geometry">
            <mxPoint x="380" y="390" as="sourcePoint" />
          </mxGeometry>
        </mxCell>
        <mxCell id="uXLMxbTY_3VQ1I9C7Unm-20" style="rounded=0;orthogonalLoop=1;jettySize=auto;html=1;exitX=1;exitY=0.5;exitDx=0;exitDy=0;entryX=0;entryY=0.5;entryDx=0;entryDy=0;strokeWidth=5;" edge="1" parent="1" source="uXLMxbTY_3VQ1I9C7Unm-6" target="uXLMxbTY_3VQ1I9C7Unm-3">
          <mxGeometry relative="1" as="geometry" />
        </mxCell>
        <mxCell id="uXLMxbTY_3VQ1I9C7Unm-6" value="" style="ellipse;whiteSpace=wrap;html=1;aspect=fixed;strokeWidth=5;" vertex="1" parent="1">
          <mxGeometry x="324" y="356" width="80" height="80" as="geometry" />
        </mxCell>
        <mxCell id="uXLMxbTY_3VQ1I9C7Unm-7" value="" style="ellipse;whiteSpace=wrap;html=1;aspect=fixed;strokeWidth=5;" vertex="1" parent="1">
          <mxGeometry x="315" y="484" width="80" height="80" as="geometry" />
        </mxCell>
        <mxCell id="uXLMxbTY_3VQ1I9C7Unm-8" value="" style="ellipse;whiteSpace=wrap;html=1;aspect=fixed;strokeWidth=14;" vertex="1" parent="1">
          <mxGeometry x="617" y="228" width="80" height="80" as="geometry" />
        </mxCell>
        <mxCell id="uXLMxbTY_3VQ1I9C7Unm-9" value="" style="ellipse;whiteSpace=wrap;html=1;aspect=fixed;strokeWidth=14;" vertex="1" parent="1">
          <mxGeometry x="591" y="354" width="80" height="80" as="geometry" />
        </mxCell>
        <mxCell id="uXLMxbTY_3VQ1I9C7Unm-10" value="" style="ellipse;whiteSpace=wrap;html=1;aspect=fixed;strokeWidth=14;" vertex="1" parent="1">
          <mxGeometry x="617" y="459" width="80" height="80" as="geometry" />
        </mxCell>
        <mxCell id="uXLMxbTY_3VQ1I9C7Unm-11" value="" style="endArrow=classic;html=1;rounded=0;exitX=1;exitY=0.5;exitDx=0;exitDy=0;entryX=0;entryY=0.5;entryDx=0;entryDy=0;strokeWidth=5;" edge="1" parent="1" source="uXLMxbTY_3VQ1I9C7Unm-5" target="uXLMxbTY_3VQ1I9C7Unm-1">
          <mxGeometry width="50" height="50" relative="1" as="geometry">
            <mxPoint x="420" y="260" as="sourcePoint" />
            <mxPoint x="470" y="210" as="targetPoint" />
          </mxGeometry>
        </mxCell>
        <mxCell id="uXLMxbTY_3VQ1I9C7Unm-14" value="" style="endArrow=classic;html=1;rounded=0;exitX=1;exitY=0.5;exitDx=0;exitDy=0;entryX=0;entryY=0.5;entryDx=0;entryDy=0;strokeWidth=5;" edge="1" parent="1" source="uXLMxbTY_3VQ1I9C7Unm-7" target="uXLMxbTY_3VQ1I9C7Unm-3">
          <mxGeometry width="50" height="50" relative="1" as="geometry">
            <mxPoint x="390" y="530" as="sourcePoint" />
            <mxPoint x="440" y="480" as="targetPoint" />
          </mxGeometry>
        </mxCell>
        <mxCell id="uXLMxbTY_3VQ1I9C7Unm-15" value="" style="endArrow=classic;html=1;rounded=0;exitX=1;exitY=0.5;exitDx=0;exitDy=0;entryX=0;entryY=0.5;entryDx=0;entryDy=0;strokeWidth=5;" edge="1" parent="1" source="uXLMxbTY_3VQ1I9C7Unm-7" target="uXLMxbTY_3VQ1I9C7Unm-4">
          <mxGeometry width="50" height="50" relative="1" as="geometry">
            <mxPoint x="310" y="650" as="sourcePoint" />
            <mxPoint x="360" y="600" as="targetPoint" />
          </mxGeometry>
        </mxCell>
        <mxCell id="uXLMxbTY_3VQ1I9C7Unm-21" value="" style="endArrow=classic;html=1;rounded=0;exitX=1;exitY=0.5;exitDx=0;exitDy=0;strokeWidth=5;" edge="1" parent="1" source="uXLMxbTY_3VQ1I9C7Unm-7">
          <mxGeometry width="50" height="50" relative="1" as="geometry">
            <mxPoint x="310" y="700" as="sourcePoint" />
            <mxPoint x="460" y="210" as="targetPoint" />
          </mxGeometry>
        </mxCell>
        <mxCell id="uXLMxbTY_3VQ1I9C7Unm-22" value="" style="endArrow=classic;html=1;rounded=0;exitX=1;exitY=0.5;exitDx=0;exitDy=0;entryX=0;entryY=0.5;entryDx=0;entryDy=0;strokeWidth=5;" edge="1" parent="1" source="uXLMxbTY_3VQ1I9C7Unm-1" target="uXLMxbTY_3VQ1I9C7Unm-10">
          <mxGeometry width="50" height="50" relative="1" as="geometry">
            <mxPoint x="780" y="180" as="sourcePoint" />
            <mxPoint x="830" y="130" as="targetPoint" />
          </mxGeometry>
        </mxCell>
        <mxCell id="uXLMxbTY_3VQ1I9C7Unm-23" value="" style="endArrow=classic;html=1;rounded=0;exitX=1;exitY=0.5;exitDx=0;exitDy=0;entryX=-0.012;entryY=0.608;entryDx=0;entryDy=0;entryPerimeter=0;strokeWidth=5;" edge="1" parent="1" source="uXLMxbTY_3VQ1I9C7Unm-1" target="uXLMxbTY_3VQ1I9C7Unm-9">
          <mxGeometry width="50" height="50" relative="1" as="geometry">
            <mxPoint x="960" y="330" as="sourcePoint" />
            <mxPoint x="1010" y="280" as="targetPoint" />
          </mxGeometry>
        </mxCell>
        <mxCell id="uXLMxbTY_3VQ1I9C7Unm-24" value="" style="endArrow=classic;html=1;rounded=0;exitX=1;exitY=0.5;exitDx=0;exitDy=0;entryX=0;entryY=0.5;entryDx=0;entryDy=0;strokeWidth=5;" edge="1" parent="1" source="uXLMxbTY_3VQ1I9C7Unm-1" target="uXLMxbTY_3VQ1I9C7Unm-8">
          <mxGeometry width="50" height="50" relative="1" as="geometry">
            <mxPoint x="820" y="330" as="sourcePoint" />
            <mxPoint x="870" y="280" as="targetPoint" />
          </mxGeometry>
        </mxCell>
        <mxCell id="uXLMxbTY_3VQ1I9C7Unm-25" value="" style="endArrow=classic;html=1;rounded=0;exitX=1;exitY=0.5;exitDx=0;exitDy=0;entryX=0.029;entryY=0.625;entryDx=0;entryDy=0;entryPerimeter=0;strokeWidth=5;" edge="1" parent="1" source="uXLMxbTY_3VQ1I9C7Unm-2" target="uXLMxbTY_3VQ1I9C7Unm-9">
          <mxGeometry width="50" height="50" relative="1" as="geometry">
            <mxPoint x="750" y="240" as="sourcePoint" />
            <mxPoint x="800" y="190" as="targetPoint" />
          </mxGeometry>
        </mxCell>
        <mxCell id="uXLMxbTY_3VQ1I9C7Unm-26" value="" style="endArrow=classic;html=1;rounded=0;entryX=0;entryY=0.5;entryDx=0;entryDy=0;exitX=1;exitY=0.5;exitDx=0;exitDy=0;strokeWidth=5;" edge="1" parent="1" source="uXLMxbTY_3VQ1I9C7Unm-2" target="uXLMxbTY_3VQ1I9C7Unm-10">
          <mxGeometry width="50" height="50" relative="1" as="geometry">
            <mxPoint x="910" y="440" as="sourcePoint" />
            <mxPoint x="960" y="390" as="targetPoint" />
          </mxGeometry>
        </mxCell>
        <mxCell id="uXLMxbTY_3VQ1I9C7Unm-27" value="" style="endArrow=classic;html=1;rounded=0;entryX=0;entryY=0.5;entryDx=0;entryDy=0;strokeWidth=5;" edge="1" parent="1" source="uXLMxbTY_3VQ1I9C7Unm-3" target="uXLMxbTY_3VQ1I9C7Unm-8">
          <mxGeometry width="50" height="50" relative="1" as="geometry">
            <mxPoint x="880" y="500" as="sourcePoint" />
            <mxPoint x="930" y="450" as="targetPoint" />
          </mxGeometry>
        </mxCell>
        <mxCell id="uXLMxbTY_3VQ1I9C7Unm-28" value="" style="endArrow=classic;html=1;rounded=0;exitX=1;exitY=0.5;exitDx=0;exitDy=0;strokeWidth=5;" edge="1" parent="1" source="uXLMxbTY_3VQ1I9C7Unm-4">
          <mxGeometry width="50" height="50" relative="1" as="geometry">
            <mxPoint x="730" y="640" as="sourcePoint" />
            <mxPoint x="620" y="510" as="targetPoint" />
          </mxGeometry>
        </mxCell>
        <mxCell id="uXLMxbTY_3VQ1I9C7Unm-29" value="" style="endArrow=classic;html=1;rounded=0;exitX=1;exitY=0.5;exitDx=0;exitDy=0;entryX=-0.012;entryY=0.625;entryDx=0;entryDy=0;entryPerimeter=0;strokeWidth=5;" edge="1" parent="1" source="uXLMxbTY_3VQ1I9C7Unm-4" target="uXLMxbTY_3VQ1I9C7Unm-9">
          <mxGeometry width="50" height="50" relative="1" as="geometry">
            <mxPoint x="740" y="620" as="sourcePoint" />
            <mxPoint x="790" y="570" as="targetPoint" />
          </mxGeometry>
        </mxCell>
        <mxCell id="uXLMxbTY_3VQ1I9C7Unm-30" value="" style="endArrow=classic;html=1;rounded=0;exitX=1;exitY=0.5;exitDx=0;exitDy=0;entryX=0;entryY=0.5;entryDx=0;entryDy=0;strokeWidth=5;" edge="1" parent="1" source="uXLMxbTY_3VQ1I9C7Unm-4" target="uXLMxbTY_3VQ1I9C7Unm-8">
          <mxGeometry width="50" height="50" relative="1" as="geometry">
            <mxPoint x="770" y="620" as="sourcePoint" />
            <mxPoint x="820" y="570" as="targetPoint" />
          </mxGeometry>
        </mxCell>
        <mxCell id="uXLMxbTY_3VQ1I9C7Unm-31" value="" style="endArrow=classic;html=1;rounded=0;exitX=1;exitY=0.5;exitDx=0;exitDy=0;entryX=0.004;entryY=0.6;entryDx=0;entryDy=0;entryPerimeter=0;strokeWidth=5;" edge="1" parent="1" source="uXLMxbTY_3VQ1I9C7Unm-3" target="uXLMxbTY_3VQ1I9C7Unm-9">
          <mxGeometry width="50" height="50" relative="1" as="geometry">
            <mxPoint x="870" y="440" as="sourcePoint" />
            <mxPoint x="920" y="390" as="targetPoint" />
          </mxGeometry>
        </mxCell>
        <mxCell id="uXLMxbTY_3VQ1I9C7Unm-32" value="" style="ellipse;whiteSpace=wrap;html=1;aspect=fixed;strokeWidth=5;" vertex="1" parent="1">
          <mxGeometry x="315" y="217" width="80" height="80" as="geometry" />
        </mxCell>
        <mxCell id="uXLMxbTY_3VQ1I9C7Unm-33" value="" style="ellipse;whiteSpace=wrap;html=1;aspect=fixed;strokeWidth=5;" vertex="1" parent="1">
          <mxGeometry x="324" y="356" width="80" height="80" as="geometry" />
        </mxCell>
        <mxCell id="uXLMxbTY_3VQ1I9C7Unm-34" value="" style="ellipse;whiteSpace=wrap;html=1;aspect=fixed;strokeWidth=5;" vertex="1" parent="1">
          <mxGeometry x="315" y="484" width="80" height="80" as="geometry" />
        </mxCell>
        <mxCell id="uXLMxbTY_3VQ1I9C7Unm-35" value="" style="ellipse;whiteSpace=wrap;html=1;aspect=fixed;strokeWidth=5;" vertex="1" parent="1">
          <mxGeometry x="460" y="430" width="80" height="80" as="geometry" />
        </mxCell>
        <mxCell id="uXLMxbTY_3VQ1I9C7Unm-36" value="" style="ellipse;whiteSpace=wrap;html=1;aspect=fixed;strokeWidth=5;" vertex="1" parent="1">
          <mxGeometry x="460" y="290" width="80" height="80" as="geometry" />
        </mxCell>
        <mxCell id="uXLMxbTY_3VQ1I9C7Unm-37" value="" style="ellipse;whiteSpace=wrap;html=1;aspect=fixed;strokeWidth=5;" vertex="1" parent="1">
          <mxGeometry x="460" y="182" width="80" height="80" as="geometry" />
        </mxCell>
        <mxCell id="uXLMxbTY_3VQ1I9C7Unm-38" value="" style="ellipse;whiteSpace=wrap;html=1;aspect=fixed;strokeWidth=5;" vertex="1" parent="1">
          <mxGeometry x="460" y="534" width="80" height="80" as="geometry" />
        </mxCell>
        <mxCell id="uXLMxbTY_3VQ1I9C7Unm-39" value="" style="ellipse;whiteSpace=wrap;html=1;aspect=fixed;strokeWidth=14;" vertex="1" parent="1">
          <mxGeometry x="315" y="217" width="80" height="80" as="geometry" />
        </mxCell>
        <mxCell id="uXLMxbTY_3VQ1I9C7Unm-40" value="" style="ellipse;whiteSpace=wrap;html=1;aspect=fixed;strokeWidth=14;" vertex="1" parent="1">
          <mxGeometry x="324" y="356" width="80" height="80" as="geometry" />
        </mxCell>
        <mxCell id="uXLMxbTY_3VQ1I9C7Unm-41" value="" style="ellipse;whiteSpace=wrap;html=1;aspect=fixed;strokeWidth=14;" vertex="1" parent="1">
          <mxGeometry x="315" y="484" width="80" height="80" as="geometry" />
        </mxCell>
        <mxCell id="uXLMxbTY_3VQ1I9C7Unm-42" value="" style="ellipse;whiteSpace=wrap;html=1;aspect=fixed;strokeWidth=14;" vertex="1" parent="1">
          <mxGeometry x="460" y="430" width="80" height="80" as="geometry" />
        </mxCell>
        <mxCell id="uXLMxbTY_3VQ1I9C7Unm-43" value="" style="ellipse;whiteSpace=wrap;html=1;aspect=fixed;strokeWidth=14;" vertex="1" parent="1">
          <mxGeometry x="460" y="290" width="80" height="80" as="geometry" />
        </mxCell>
        <mxCell id="uXLMxbTY_3VQ1I9C7Unm-44" value="" style="ellipse;whiteSpace=wrap;html=1;aspect=fixed;strokeWidth=14;" vertex="1" parent="1">
          <mxGeometry x="460" y="182" width="80" height="80" as="geometry" />
        </mxCell>
        <mxCell id="uXLMxbTY_3VQ1I9C7Unm-45" value="" style="ellipse;whiteSpace=wrap;html=1;aspect=fixed;strokeWidth=14;" vertex="1" parent="1">
          <mxGeometry x="460" y="534" width="80" height="80" as="geometry" />
        </mxCell>
        <mxCell id="uXLMxbTY_3VQ1I9C7Unm-46" value="" style="ellipse;whiteSpace=wrap;html=1;aspect=fixed;strokeWidth=5;" vertex="1" parent="1">
          <mxGeometry x="208" y="694" width="80" height="80" as="geometry" />
        </mxCell>
        <mxCell id="uXLMxbTY_3VQ1I9C7Unm-47" value="" style="ellipse;whiteSpace=wrap;html=1;aspect=fixed;strokeWidth=5;" vertex="1" parent="1">
          <mxGeometry x="208" y="802" width="80" height="80" as="geometry" />
        </mxCell>
        <mxCell id="uXLMxbTY_3VQ1I9C7Unm-48" value="" style="ellipse;whiteSpace=wrap;html=1;aspect=fixed;strokeWidth=5;" vertex="1" parent="1">
          <mxGeometry x="208" y="942" width="80" height="80" as="geometry" />
        </mxCell>
        <mxCell id="uXLMxbTY_3VQ1I9C7Unm-49" value="" style="ellipse;whiteSpace=wrap;html=1;aspect=fixed;strokeWidth=5;" vertex="1" parent="1">
          <mxGeometry x="208" y="1046" width="80" height="80" as="geometry" />
        </mxCell>
        <mxCell id="uXLMxbTY_3VQ1I9C7Unm-50" style="rounded=0;orthogonalLoop=1;jettySize=auto;html=1;exitX=1;exitY=0.5;exitDx=0;exitDy=0;strokeWidth=5;" edge="1" source="uXLMxbTY_3VQ1I9C7Unm-53" parent="1">
          <mxGeometry relative="1" as="geometry">
            <mxPoint x="208" y="1112" as="targetPoint" />
          </mxGeometry>
        </mxCell>
        <mxCell id="uXLMxbTY_3VQ1I9C7Unm-51" style="rounded=0;orthogonalLoop=1;jettySize=auto;html=1;entryX=0;entryY=0.5;entryDx=0;entryDy=0;exitX=1;exitY=0.5;exitDx=0;exitDy=0;strokeWidth=5;" edge="1" source="uXLMxbTY_3VQ1I9C7Unm-53" target="uXLMxbTY_3VQ1I9C7Unm-48" parent="1">
          <mxGeometry relative="1" as="geometry" />
        </mxCell>
        <mxCell id="uXLMxbTY_3VQ1I9C7Unm-52" style="rounded=0;orthogonalLoop=1;jettySize=auto;html=1;entryX=0;entryY=0.5;entryDx=0;entryDy=0;strokeWidth=5;" edge="1" source="uXLMxbTY_3VQ1I9C7Unm-53" target="uXLMxbTY_3VQ1I9C7Unm-47" parent="1">
          <mxGeometry relative="1" as="geometry" />
        </mxCell>
        <mxCell id="uXLMxbTY_3VQ1I9C7Unm-53" value="" style="ellipse;whiteSpace=wrap;html=1;aspect=fixed;strokeWidth=5;" vertex="1" parent="1">
          <mxGeometry x="63" y="729" width="80" height="80" as="geometry" />
        </mxCell>
        <mxCell id="uXLMxbTY_3VQ1I9C7Unm-54" style="rounded=0;orthogonalLoop=1;jettySize=auto;html=1;exitX=1;exitY=0.5;exitDx=0;exitDy=0;entryX=0;entryY=0.5;entryDx=0;entryDy=0;strokeWidth=5;" edge="1" source="uXLMxbTY_3VQ1I9C7Unm-57" target="uXLMxbTY_3VQ1I9C7Unm-47" parent="1">
          <mxGeometry relative="1" as="geometry" />
        </mxCell>
        <mxCell id="uXLMxbTY_3VQ1I9C7Unm-55" style="rounded=0;orthogonalLoop=1;jettySize=auto;html=1;entryX=0;entryY=0.5;entryDx=0;entryDy=0;strokeWidth=5;" edge="1" target="uXLMxbTY_3VQ1I9C7Unm-46" parent="1">
          <mxGeometry relative="1" as="geometry">
            <mxPoint x="128" y="902" as="sourcePoint" />
          </mxGeometry>
        </mxCell>
        <mxCell id="uXLMxbTY_3VQ1I9C7Unm-56" style="rounded=0;orthogonalLoop=1;jettySize=auto;html=1;exitX=1;exitY=0.5;exitDx=0;exitDy=0;entryX=0;entryY=0.5;entryDx=0;entryDy=0;strokeWidth=5;" edge="1" source="uXLMxbTY_3VQ1I9C7Unm-57" target="uXLMxbTY_3VQ1I9C7Unm-48" parent="1">
          <mxGeometry relative="1" as="geometry" />
        </mxCell>
        <mxCell id="uXLMxbTY_3VQ1I9C7Unm-57" value="" style="ellipse;whiteSpace=wrap;html=1;aspect=fixed;strokeWidth=5;" vertex="1" parent="1">
          <mxGeometry x="72" y="868" width="80" height="80" as="geometry" />
        </mxCell>
        <mxCell id="uXLMxbTY_3VQ1I9C7Unm-58" value="" style="ellipse;whiteSpace=wrap;html=1;aspect=fixed;strokeWidth=5;" vertex="1" parent="1">
          <mxGeometry x="63" y="996" width="80" height="80" as="geometry" />
        </mxCell>
        <mxCell id="uXLMxbTY_3VQ1I9C7Unm-59" value="" style="ellipse;whiteSpace=wrap;html=1;aspect=fixed;strokeWidth=14;" vertex="1" parent="1">
          <mxGeometry x="365" y="740" width="80" height="80" as="geometry" />
        </mxCell>
        <mxCell id="uXLMxbTY_3VQ1I9C7Unm-60" value="" style="ellipse;whiteSpace=wrap;html=1;aspect=fixed;strokeWidth=14;strokeColor=#B3B3B3;" vertex="1" parent="1">
          <mxGeometry x="355" y="855" width="80" height="80" as="geometry" />
        </mxCell>
        <mxCell id="uXLMxbTY_3VQ1I9C7Unm-61" value="" style="ellipse;whiteSpace=wrap;html=1;aspect=fixed;strokeWidth=14;" vertex="1" parent="1">
          <mxGeometry x="365" y="971" width="80" height="80" as="geometry" />
        </mxCell>
        <mxCell id="uXLMxbTY_3VQ1I9C7Unm-62" value="" style="endArrow=classic;html=1;rounded=0;exitX=1;exitY=0.5;exitDx=0;exitDy=0;entryX=0;entryY=0.5;entryDx=0;entryDy=0;strokeWidth=5;" edge="1" source="uXLMxbTY_3VQ1I9C7Unm-53" target="uXLMxbTY_3VQ1I9C7Unm-46" parent="1">
          <mxGeometry width="50" height="50" relative="1" as="geometry">
            <mxPoint x="168" y="772" as="sourcePoint" />
            <mxPoint x="218" y="722" as="targetPoint" />
          </mxGeometry>
        </mxCell>
        <mxCell id="uXLMxbTY_3VQ1I9C7Unm-63" value="" style="endArrow=classic;html=1;rounded=0;exitX=1;exitY=0.5;exitDx=0;exitDy=0;entryX=0;entryY=0.5;entryDx=0;entryDy=0;strokeWidth=5;" edge="1" source="uXLMxbTY_3VQ1I9C7Unm-58" target="uXLMxbTY_3VQ1I9C7Unm-48" parent="1">
          <mxGeometry width="50" height="50" relative="1" as="geometry">
            <mxPoint x="138" y="1042" as="sourcePoint" />
            <mxPoint x="188" y="992" as="targetPoint" />
          </mxGeometry>
        </mxCell>
        <mxCell id="uXLMxbTY_3VQ1I9C7Unm-64" value="" style="endArrow=classic;html=1;rounded=0;exitX=1;exitY=0.5;exitDx=0;exitDy=0;entryX=0;entryY=0.5;entryDx=0;entryDy=0;strokeWidth=5;" edge="1" source="uXLMxbTY_3VQ1I9C7Unm-58" target="uXLMxbTY_3VQ1I9C7Unm-49" parent="1">
          <mxGeometry width="50" height="50" relative="1" as="geometry">
            <mxPoint x="58" y="1162" as="sourcePoint" />
            <mxPoint x="108" y="1112" as="targetPoint" />
          </mxGeometry>
        </mxCell>
        <mxCell id="uXLMxbTY_3VQ1I9C7Unm-65" value="" style="endArrow=classic;html=1;rounded=0;exitX=1;exitY=0.5;exitDx=0;exitDy=0;strokeWidth=5;" edge="1" source="uXLMxbTY_3VQ1I9C7Unm-58" parent="1">
          <mxGeometry width="50" height="50" relative="1" as="geometry">
            <mxPoint x="58" y="1212" as="sourcePoint" />
            <mxPoint x="208" y="722" as="targetPoint" />
          </mxGeometry>
        </mxCell>
        <mxCell id="uXLMxbTY_3VQ1I9C7Unm-66" value="" style="endArrow=classic;html=1;rounded=0;exitX=1;exitY=0.5;exitDx=0;exitDy=0;entryX=0;entryY=0.5;entryDx=0;entryDy=0;strokeWidth=5;" edge="1" source="uXLMxbTY_3VQ1I9C7Unm-46" target="uXLMxbTY_3VQ1I9C7Unm-61" parent="1">
          <mxGeometry width="50" height="50" relative="1" as="geometry">
            <mxPoint x="528" y="692" as="sourcePoint" />
            <mxPoint x="578" y="642" as="targetPoint" />
          </mxGeometry>
        </mxCell>
        <mxCell id="uXLMxbTY_3VQ1I9C7Unm-67" value="" style="endArrow=classic;html=1;rounded=0;exitX=1;exitY=0.5;exitDx=0;exitDy=0;entryX=-0.012;entryY=0.608;entryDx=0;entryDy=0;entryPerimeter=0;strokeWidth=5;strokeColor=#CCCCCC;" edge="1" source="uXLMxbTY_3VQ1I9C7Unm-46" target="uXLMxbTY_3VQ1I9C7Unm-60" parent="1">
          <mxGeometry width="50" height="50" relative="1" as="geometry">
            <mxPoint x="708" y="842" as="sourcePoint" />
            <mxPoint x="758" y="792" as="targetPoint" />
          </mxGeometry>
        </mxCell>
        <mxCell id="uXLMxbTY_3VQ1I9C7Unm-68" value="" style="endArrow=classic;html=1;rounded=0;exitX=1;exitY=0.5;exitDx=0;exitDy=0;entryX=0;entryY=0.5;entryDx=0;entryDy=0;strokeWidth=5;" edge="1" source="uXLMxbTY_3VQ1I9C7Unm-46" target="uXLMxbTY_3VQ1I9C7Unm-59" parent="1">
          <mxGeometry width="50" height="50" relative="1" as="geometry">
            <mxPoint x="568" y="842" as="sourcePoint" />
            <mxPoint x="618" y="792" as="targetPoint" />
          </mxGeometry>
        </mxCell>
        <mxCell id="uXLMxbTY_3VQ1I9C7Unm-70" value="" style="endArrow=classic;html=1;rounded=0;entryX=0;entryY=0.5;entryDx=0;entryDy=0;exitX=1;exitY=0.5;exitDx=0;exitDy=0;strokeWidth=5;" edge="1" source="uXLMxbTY_3VQ1I9C7Unm-47" target="uXLMxbTY_3VQ1I9C7Unm-61" parent="1">
          <mxGeometry width="50" height="50" relative="1" as="geometry">
            <mxPoint x="658" y="952" as="sourcePoint" />
            <mxPoint x="708" y="902" as="targetPoint" />
          </mxGeometry>
        </mxCell>
        <mxCell id="uXLMxbTY_3VQ1I9C7Unm-71" value="" style="endArrow=classic;html=1;rounded=0;entryX=0;entryY=0.5;entryDx=0;entryDy=0;strokeWidth=5;" edge="1" source="uXLMxbTY_3VQ1I9C7Unm-48" target="uXLMxbTY_3VQ1I9C7Unm-59" parent="1">
          <mxGeometry width="50" height="50" relative="1" as="geometry">
            <mxPoint x="628" y="1012" as="sourcePoint" />
            <mxPoint x="678" y="962" as="targetPoint" />
          </mxGeometry>
        </mxCell>
        <mxCell id="uXLMxbTY_3VQ1I9C7Unm-72" value="" style="endArrow=classic;html=1;rounded=0;exitX=1;exitY=0.5;exitDx=0;exitDy=0;strokeWidth=5;" edge="1" source="uXLMxbTY_3VQ1I9C7Unm-49" parent="1">
          <mxGeometry width="50" height="50" relative="1" as="geometry">
            <mxPoint x="478" y="1152" as="sourcePoint" />
            <mxPoint x="368" y="1022" as="targetPoint" />
          </mxGeometry>
        </mxCell>
        <mxCell id="uXLMxbTY_3VQ1I9C7Unm-74" value="" style="endArrow=classic;html=1;rounded=0;exitX=1;exitY=0.5;exitDx=0;exitDy=0;entryX=0;entryY=0.5;entryDx=0;entryDy=0;strokeWidth=5;" edge="1" source="uXLMxbTY_3VQ1I9C7Unm-49" target="uXLMxbTY_3VQ1I9C7Unm-59" parent="1">
          <mxGeometry width="50" height="50" relative="1" as="geometry">
            <mxPoint x="518" y="1132" as="sourcePoint" />
            <mxPoint x="568" y="1082" as="targetPoint" />
          </mxGeometry>
        </mxCell>
        <mxCell id="uXLMxbTY_3VQ1I9C7Unm-76" value="" style="ellipse;whiteSpace=wrap;html=1;aspect=fixed;strokeWidth=5;" vertex="1" parent="1">
          <mxGeometry x="63" y="729" width="80" height="80" as="geometry" />
        </mxCell>
        <mxCell id="uXLMxbTY_3VQ1I9C7Unm-77" value="" style="ellipse;whiteSpace=wrap;html=1;aspect=fixed;strokeWidth=5;" vertex="1" parent="1">
          <mxGeometry x="72" y="868" width="80" height="80" as="geometry" />
        </mxCell>
        <mxCell id="uXLMxbTY_3VQ1I9C7Unm-78" value="" style="ellipse;whiteSpace=wrap;html=1;aspect=fixed;strokeWidth=5;" vertex="1" parent="1">
          <mxGeometry x="63" y="996" width="80" height="80" as="geometry" />
        </mxCell>
        <mxCell id="uXLMxbTY_3VQ1I9C7Unm-79" value="" style="ellipse;whiteSpace=wrap;html=1;aspect=fixed;strokeWidth=5;" vertex="1" parent="1">
          <mxGeometry x="208" y="942" width="80" height="80" as="geometry" />
        </mxCell>
        <mxCell id="uXLMxbTY_3VQ1I9C7Unm-80" value="" style="ellipse;whiteSpace=wrap;html=1;aspect=fixed;strokeWidth=5;" vertex="1" parent="1">
          <mxGeometry x="208" y="802" width="80" height="80" as="geometry" />
        </mxCell>
        <mxCell id="uXLMxbTY_3VQ1I9C7Unm-81" value="" style="ellipse;whiteSpace=wrap;html=1;aspect=fixed;strokeWidth=5;" vertex="1" parent="1">
          <mxGeometry x="208" y="694" width="80" height="80" as="geometry" />
        </mxCell>
        <mxCell id="uXLMxbTY_3VQ1I9C7Unm-82" value="" style="ellipse;whiteSpace=wrap;html=1;aspect=fixed;strokeWidth=5;" vertex="1" parent="1">
          <mxGeometry x="208" y="1046" width="80" height="80" as="geometry" />
        </mxCell>
        <mxCell id="uXLMxbTY_3VQ1I9C7Unm-83" value="" style="ellipse;whiteSpace=wrap;html=1;aspect=fixed;strokeWidth=14;" vertex="1" parent="1">
          <mxGeometry x="63" y="729" width="80" height="80" as="geometry" />
        </mxCell>
        <mxCell id="uXLMxbTY_3VQ1I9C7Unm-84" value="" style="ellipse;whiteSpace=wrap;html=1;aspect=fixed;strokeWidth=14;" vertex="1" parent="1">
          <mxGeometry x="72" y="868" width="80" height="80" as="geometry" />
        </mxCell>
        <mxCell id="uXLMxbTY_3VQ1I9C7Unm-85" value="" style="ellipse;whiteSpace=wrap;html=1;aspect=fixed;strokeWidth=14;" vertex="1" parent="1">
          <mxGeometry x="63" y="996" width="80" height="80" as="geometry" />
        </mxCell>
        <mxCell id="uXLMxbTY_3VQ1I9C7Unm-86" value="" style="ellipse;whiteSpace=wrap;html=1;aspect=fixed;strokeWidth=14;" vertex="1" parent="1">
          <mxGeometry x="208" y="942" width="80" height="80" as="geometry" />
        </mxCell>
        <mxCell id="uXLMxbTY_3VQ1I9C7Unm-87" value="" style="ellipse;whiteSpace=wrap;html=1;aspect=fixed;strokeWidth=14;" vertex="1" parent="1">
          <mxGeometry x="208" y="802" width="80" height="80" as="geometry" />
        </mxCell>
        <mxCell id="uXLMxbTY_3VQ1I9C7Unm-88" value="" style="ellipse;whiteSpace=wrap;html=1;aspect=fixed;strokeWidth=14;" vertex="1" parent="1">
          <mxGeometry x="208" y="694" width="80" height="80" as="geometry" />
        </mxCell>
        <mxCell id="uXLMxbTY_3VQ1I9C7Unm-89" value="" style="ellipse;whiteSpace=wrap;html=1;aspect=fixed;strokeWidth=14;" vertex="1" parent="1">
          <mxGeometry x="208" y="1046" width="80" height="80" as="geometry" />
        </mxCell>
        <mxCell id="uXLMxbTY_3VQ1I9C7Unm-93" value="" style="endArrow=classic;html=1;rounded=0;exitX=1;exitY=0.5;exitDx=0;exitDy=0;entryX=-0.012;entryY=0.625;entryDx=0;entryDy=0;entryPerimeter=0;strokeWidth=5;strokeColor=#CCCCCC;" edge="1" parent="1">
          <mxGeometry width="50" height="50" relative="1" as="geometry">
            <mxPoint x="291" y="1080" as="sourcePoint" />
            <mxPoint x="357" y="899" as="targetPoint" />
          </mxGeometry>
        </mxCell>
        <mxCell id="uXLMxbTY_3VQ1I9C7Unm-94" value="" style="endArrow=classic;html=1;rounded=0;exitX=1;exitY=0.5;exitDx=0;exitDy=0;entryX=0.004;entryY=0.6;entryDx=0;entryDy=0;entryPerimeter=0;strokeWidth=5;strokeColor=#CCCCCC;" edge="1" parent="1">
          <mxGeometry width="50" height="50" relative="1" as="geometry">
            <mxPoint x="288" y="978" as="sourcePoint" />
            <mxPoint x="355" y="899" as="targetPoint" />
          </mxGeometry>
        </mxCell>
        <mxCell id="uXLMxbTY_3VQ1I9C7Unm-95" value="" style="endArrow=classic;html=1;rounded=0;exitX=1;exitY=0.5;exitDx=0;exitDy=0;entryX=0.029;entryY=0.625;entryDx=0;entryDy=0;entryPerimeter=0;strokeWidth=5;strokeColor=#CCCCCC;" edge="1" parent="1">
          <mxGeometry width="50" height="50" relative="1" as="geometry">
            <mxPoint x="286" y="841" as="sourcePoint" />
            <mxPoint x="355" y="904" as="targetPoint" />
          </mxGeometry>
        </mxCell>
      </root>
    </mxGraphModel>
  </diagram>
</mxfile>
